<?xml version="1.0" encoding="utf-8"?>
<!-- Generator: Adobe Illustrator 20.1.0, SVG Export Plug-In . SVG Version: 6.00 Build 0)  -->
<svg version="1.1" id="Layer_1" xmlns="http://www.w3.org/2000/svg" xmlns:xlink="http://www.w3.org/1999/xlink" x="0px" y="0px"
	 viewBox="0 0 318.5 59.3" style="enable-background:new 0 0 318.5 59.3;" xml:space="preserve">
<style type="text/css">
	.st0{fill:none;stroke:#FFFFFF;stroke-width:0.8;}
	.st1{fill:#FFFFFF;}
</style>
<g>
	<path d="M130.9,54.4c0.8,0,1.5,0.7,1.5,1.5c0,0.8-0.7,1.5-1.5,1.5c-0.8,0-1.5-0.7-1.5-1.5C129.4,55,130.1,54.4,130.9,54.4z
		 M130.9,57.3c0.8,0,1.4-0.6,1.4-1.4c0-0.8-0.6-1.4-1.4-1.4c-0.8,0-1.4,0.6-1.4,1.4C129.5,56.6,130.1,57.3,130.9,57.3z M130.4,55
		h0.6c0.4,0,0.6,0.2,0.6,0.5c0,0.3-0.2,0.4-0.4,0.4l0.5,0.8h-0.1l-0.5-0.8c0,0-0.1,0-0.1,0h-0.4v0.8h-0.1V55z M130.9,55.9
		c0.2,0,0.6,0,0.6-0.4c0-0.3-0.2-0.4-0.5-0.4h-0.5v0.8H130.9z"/>
</g>
<g>
	<polygon class="st0" points="117.5,33.2 122.7,53 117.5,53 117.5,33.2 	"/>
	<polygon class="st0" points="128,33.2 122.7,53 128,53 128,33.2 	"/>
	<polyline class="st0" points="125.4,42.9 122.7,3.3 120.1,42.9 	"/>
	<rect x="117.5" y="55.1" class="st0" width="10.6" height="2"/>
</g>
<g>
	<g>
		<path class="st1" d="M24.6,29.1H21l-0.3-1.9c-1.5,1.7-4,2.2-6,2.2c-6.5,0-10.7-4-10.7-8.9c0-5,4.2-8.9,10.7-8.9
			c4.4,0,9.2,1.9,9.7,6.2h-5.6c-0.2-1.5-2-2.4-4.2-2.4c-3.6,0-5,2.5-5,5.1c0,2.5,1.4,5.1,5,5.1c2.8,0,4.6-1,4.9-2.6h-3.9v-3.3h9
			V29.1z"/>
		<path class="st1" d="M30.9,23.9c0.1,1.7,1.3,2.8,3.5,2.8c1.2,0,2.4-0.5,2.9-1.4H42c-0.9,2.9-4.3,4.1-7.7,4.1
			c-5.1,0-8.5-2.4-8.5-6.6c0-3.8,3.8-6.6,8.4-6.6c5.6,0,8.4,3.4,8.1,7.6H30.9z M37.2,21.6c-0.1-1.4-1.3-2.5-3-2.5
			c-1.8,0-3,1-3.3,2.5H37.2z"/>
		<path class="st1" d="M51.3,16.3c4.8,0,8.2,2.9,8.2,6.6c0,3.7-3.4,6.6-8.2,6.6c-4.8,0-8.2-2.8-8.2-6.6
			C43.1,19.2,46.4,16.3,51.3,16.3z M51.3,26.4c2.4,0,3.1-1.9,3.1-3.5c0-1.6-0.8-3.5-3.1-3.5c-2.4,0-3.1,1.9-3.1,3.5
			C48.2,24.5,48.9,26.4,51.3,26.4z"/>
		<path class="st1" d="M60.3,16.7h4.9v2.2h0.1c0.8-1.6,2.5-2.4,4.7-2.4c0.4,0,0.8,0,1.2,0.1v3.7C70.6,20.1,70,20,69.3,20
			c-2.5,0-3.8,1.4-3.8,3v6.2h-5.1V16.7z"/>
		<path class="st1" d="M87.5,27.6c0,2-0.5,5.9-7.8,5.9c-3.6,0-7-0.6-7.6-4h5.1c0.1,0.6,0.4,0.9,0.9,1.1c0.5,0.2,1.1,0.3,1.9,0.3
			c2.4,0,2.7-1.4,2.7-2.9v-1.2h-0.1c-0.9,1.2-2.5,1.8-4.1,1.8c-4.7,0-6.8-2.7-6.8-6.2c0-3.3,2.4-6.1,6.8-6.1c1.9,0,3.3,0.6,4.2,1.9
			h0.1v-1.6h4.9V27.6z M79.6,19.4c-2.2,0-3,1.6-3,3.1c0,1.5,0.8,2.9,2.9,2.9c2.2,0,3.1-1.3,3.1-2.9C82.7,21,81.9,19.4,79.6,19.4z"/>
		<path class="st1" d="M89.4,16.7h5.1v12.5h-5.1V16.7z M94.5,15.1h-5.1V12h5.1V15.1z"/>
		<path class="st1" d="M96,20.5c0.1-1.6,1.1-2.7,2.4-3.3c1.4-0.6,3.2-0.9,4.9-0.9c3.7,0,7.3,0.6,7.3,4.2v5.4c0,1.1,0,2.2,0.6,3.2
			h-5.1c-0.2-0.4-0.2-0.8-0.3-1.2c-1.3,1.1-3.3,1.5-5.1,1.5c-3,0-5.3-1.2-5.3-3.8c0-4.1,5.5-3.7,9.1-4.3c0.9-0.1,1.4-0.4,1.4-1.2
			c0-0.9-1.4-1.3-2.5-1.3c-1.4,0-2.3,0.5-2.5,1.6H96z M102.6,27c2.4,0,3.2-1.1,3.1-3.7c-0.7,0.4-2,0.4-3.1,0.7
			c-1.1,0.2-2.1,0.6-2.1,1.6C100.5,26.6,101.5,27,102.6,27z"/>
		<path class="st1" d="M64.9,36.1h-6.4v13.3H53V36.1h-6.4v-3.8h18.4V36.1z"/>
		<path class="st1" d="M65.5,44.1c0.1,1.7,1.3,2.8,3.5,2.8c1.2,0,2.4-0.5,2.9-1.4h4.8c-0.9,2.9-4.3,4.1-7.7,4.1
			c-5.1,0-8.5-2.4-8.5-6.6c0-3.8,3.8-6.6,8.4-6.6c5.6,0,8.4,3.4,8.1,7.6H65.5z M71.9,41.9c-0.1-1.4-1.3-2.5-3-2.5
			c-1.8,0-3,1-3.3,2.5H71.9z"/>
		<path class="st1" d="M89,41.5c0-1.1-1.2-1.8-2.5-1.8c-2.9,0-3.3,1.9-3.3,3.7c0,1.6,0.9,3.3,3,3.3c1.8,0,2.7-0.8,2.9-2.1h5
			c-0.5,3.3-3.7,5.3-7.8,5.3c-4.7,0-8.2-2.6-8.2-6.4c0-4,3.1-6.8,8.2-6.8c3.9,0,7.3,1.6,7.7,4.9H89z"/>
		<path class="st1" d="M95.1,32.2h5.1v6.4h0.1c0.8-1.3,2.9-2.1,4.7-2.1c5.2,0,5.6,3,5.6,4.8v8h-5.1v-6c0-1.7,0.2-3.4-2.5-3.4
			c-1.9,0-2.8,1.3-2.8,2.7v6.8h-5.1V32.2z"/>
	</g>
	<g>
		<path class="st1" d="M130.9,54.4c0.8,0,1.5,0.7,1.5,1.5c0,0.8-0.7,1.5-1.5,1.5c-0.8,0-1.5-0.7-1.5-1.5
			C129.4,55,130.1,54.4,130.9,54.4z M130.9,57.3c0.8,0,1.4-0.6,1.4-1.4c0-0.8-0.6-1.4-1.4-1.4c-0.8,0-1.4,0.6-1.4,1.4
			C129.5,56.6,130.1,57.3,130.9,57.3z M130.4,55h0.6c0.4,0,0.6,0.2,0.6,0.5c0,0.3-0.2,0.4-0.4,0.4l0.5,0.8h-0.1l-0.5-0.8
			c0,0-0.1,0-0.1,0h-0.4v0.8h-0.1V55z M130.9,55.9c0.2,0,0.6,0,0.6-0.4c0-0.3-0.2-0.4-0.5-0.4h-0.5v0.8H130.9z"/>
	</g>
	<path class="st1" d="M134.7,12.8h11.9c4.4,0,5.9,2.3,5.9,5.4c0,2.7-1.3,5.4-5.7,5.4H140v5.4h-5.4V12.8z M140,20.2h4.8
		c1.5,0,2.1-0.6,2.1-2c0-1.4-0.7-2-2.1-2H140V20.2z"/>
	<path class="st1" d="M153.7,16.7h4.7v2.4h0c0.9-1.6,2.8-2.7,5-2.7c0.5,0,1.1,0,1.6,0.1V21c-0.6-0.2-1.7-0.4-2.6-0.4
		c-2.7,0-3.9,1.4-3.9,3.6v4.7h-4.8V16.7z"/>
	<path class="st1" d="M174.4,16.2c5.5,0,8.6,2.3,8.6,6.6c0,4.3-3,6.6-8.6,6.6c-5.5,0-8.6-2.3-8.6-6.6
		C165.9,18.5,168.9,16.2,174.4,16.2z M170.9,22.8c0,2.3,1.4,3.4,3.5,3.4c2.2,0,3.5-1.1,3.5-3.4c0-2.3-1.4-3.4-3.5-3.4
		C172.3,19.4,170.9,20.5,170.9,22.8z"/>
	<path class="st1" d="M183.2,16.7h2.5v-1c0-2.3,0.8-3.5,5.1-3.5c1,0,1.9,0.1,2.8,0.2V15h-2.1c-0.9,0-1,0.2-1,0.9v0.7h3.2v3.2h-3.2
		v9.1h-4.8v-9.1h-2.5V16.7z"/>
	<path class="st1" d="M210.7,25.3c-0.6,2-2.9,4.1-8.1,4.1c-5.5,0-8.6-2.1-8.6-6.6c0-4.3,3.4-6.6,8.4-6.6c5.2,0,8.5,2.3,8.5,7.4v0.4
		h-12c0.2,1.6,1.4,2.7,3.8,2.7c1.5,0,2.3-0.7,2.9-1.4H210.7z M206,21.4c-0.3-1.4-1.3-2.5-3.5-2.5c-2.3,0-3.3,1.1-3.5,2.5H206z"/>
	<path class="st1" d="M217,25.1c0.1,0.5,0.2,0.8,0.7,1c0.4,0.2,1.1,0.4,2.1,0.4c1.1,0,2.2-0.2,2.2-1.1c0-0.7-0.5-0.8-1.6-1l-4.3-0.5
		c-2.8-0.3-4.2-1.3-4.2-3.4c0-3.3,2.8-4.3,7.4-4.3c3.2,0,7.3,0.6,7.6,4.1h-5.4c0-0.5-0.4-0.9-0.9-1c-0.5-0.2-1.1-0.3-1.7-0.3
		c-1.4,0-2.2,0.3-2.2,1.1c0,0.4,0.3,0.7,1.5,0.9l4.1,0.5c3.3,0.4,4.9,1.4,4.9,3.8c0,2.9-2.7,4.2-7.8,4.2c-3.4,0-7.9-0.6-8.1-4.3H217
		z"/>
	<path class="st1" d="M233.7,25.1c0.1,0.5,0.2,0.8,0.7,1c0.4,0.2,1.1,0.4,2.1,0.4c1.1,0,2.2-0.2,2.2-1.1c0-0.7-0.5-0.8-1.6-1
		l-4.3-0.5c-2.8-0.3-4.2-1.3-4.2-3.4c0-3.3,2.8-4.3,7.4-4.3c3.2,0,7.3,0.6,7.6,4.1h-5.4c0-0.5-0.4-0.9-0.9-1
		c-0.5-0.2-1.1-0.3-1.7-0.3c-1.4,0-2.2,0.3-2.2,1.1c0,0.4,0.3,0.7,1.5,0.9l4.1,0.5c3.3,0.4,4.9,1.4,4.9,3.8c0,2.9-2.7,4.2-7.8,4.2
		c-3.4,0-7.9-0.6-8.1-4.3H233.7z"/>
	<path class="st1" d="M245.3,12.4h4.8v2.9h-4.8V12.4z M245.3,16.7h4.8v12.2h-4.8V16.7z"/>
	<path class="st1" d="M259.5,16.2c5.5,0,8.6,2.3,8.6,6.6c0,4.3-3,6.6-8.6,6.6c-5.5,0-8.6-2.3-8.6-6.6
		C250.9,18.5,253.9,16.2,259.5,16.2z M255.9,22.8c0,2.3,1.4,3.4,3.5,3.4c2.2,0,3.5-1.1,3.5-3.4c0-2.3-1.4-3.4-3.5-3.4
		C257.3,19.4,255.9,20.5,255.9,22.8z"/>
	<path class="st1" d="M269.1,16.7h4.6v1.8h0c1-1.2,2.7-2.1,5.1-2.1c3,0,5.2,1.4,5.2,4.5v8h-4.8v-6.6c0-1.6-0.9-2.3-2.5-2.3
		c-1.7,0-3,0.9-3,2.9v6h-4.8V16.7z"/>
	<path class="st1" d="M285.7,20.5c0.5-3.6,3.9-4.1,7.6-4.1c4.4,0,7.8,0.7,7.8,4.1v6.2c0,1,0.1,1.5,0.5,2.2h-4.8
		c-0.2-0.4-0.2-0.8-0.2-1.1c-1.4,1.3-3.3,1.6-5.7,1.6c-3.9,0-6-1.3-6-3.8c0-2.8,1.8-3.8,5.3-4l4.8-0.3c1.2-0.1,1.4-0.4,1.4-1
		c0-0.9-0.9-1.3-3-1.3c-1.8,0-2.6,0.5-2.8,1.5H285.7z M296.5,23.2c-0.4,0.1-0.9,0.2-1.8,0.3l-3.2,0.4c-1,0.1-1.4,0.5-1.4,1.2
		c0,0.9,0.9,1.5,2.1,1.5c2.7,0,4.3-1,4.3-2.7V23.2z"/>
	<path class="st1" d="M303.2,12.4h4.8v16.5h-4.8V12.4z"/>
	<path class="st1" d="M134.7,33.3h16.1v3.5H140v2.9h10.1V43H140v2.9h10.7v3.5h-16.1V33.3z"/>
	<path class="st1" d="M163.1,47.9L163.1,47.9c-1.1,1.2-2.7,1.9-4.7,1.9c-4.3,0-7.1-2.4-7.1-6.6c0-3.5,2.6-6.4,7.1-6.4
		c2.1,0,3.7,0.7,4.5,1.9h0v-5.8h4.8v16.4h-4.6V47.9z M159.6,40.2c-2.2,0-3.4,1.1-3.4,3.1c0,2,1.2,3.1,3.4,3.1c2.2,0,3.4-1.2,3.4-3.1
		C163,41.4,161.8,40.2,159.6,40.2z"/>
	<path class="st1" d="M169.5,37.2h4.8v6.3c0,2.1,0.9,2.8,2.5,2.8c1.7,0,3-0.9,3-2.9v-6.2h4.8v12.2h-4.6v-1.6h0
		c-1,1.2-2.7,2.1-5.1,2.1c-2.9,0-5.2-1.3-5.2-4.9V37.2z"/>
	<path class="st1" d="M202.4,44.4c-0.7,3.5-3.1,5.5-8.4,5.5c-5.4,0-8.6-2.1-8.6-6.6c0-4.4,3.3-6.6,8.6-6.6c4.5,0,7.8,1.4,8.2,5.2
		h-4.9c-0.2-1.3-1.2-2.1-3.2-2.1c-2.2,0-3.6,1.2-3.6,3.4c0,2.2,1.3,3.4,3.6,3.4c1.8,0,3-0.8,3.3-2.3H202.4z"/>
	<path class="st1" d="M204.1,41c0.5-3.6,3.9-4.1,7.6-4.1c4.4,0,7.8,0.7,7.8,4.1v6.2c0,1,0.1,1.5,0.5,2.2h-4.8
		c-0.2-0.4-0.2-0.8-0.2-1.1c-1.4,1.3-3.3,1.6-5.7,1.6c-3.9,0-6-1.3-6-3.8c0-2.8,1.8-3.8,5.3-4l4.8-0.3c1.2-0.1,1.4-0.4,1.4-1
		c0-0.9-0.9-1.3-3-1.3c-1.8,0-2.6,0.5-2.8,1.5H204.1z M214.8,43.7c-0.4,0.1-0.9,0.2-1.8,0.3l-3.2,0.4c-1,0.1-1.4,0.5-1.4,1.2
		c0,0.9,0.9,1.5,2.1,1.5c2.7,0,4.3-1,4.3-2.7V43.7z"/>
	<path class="st1" d="M220.2,37.2h2.5v-3.9h4.8v3.9h3.2v3.2h-3.2v4.9c0,1.1,0.3,1.3,1.6,1.3c0.6,0,1.1,0,1.7,0v3
		c-1,0.1-2.2,0.2-3.6,0.2c-3.1,0-4.4-0.8-4.4-3.4v-5.9h-2.5V37.2z"/>
	<path class="st1" d="M232.5,32.9h4.8v2.9h-4.8V32.9z M232.5,37.2h4.8v12.2h-4.8V37.2z"/>
	<path class="st1" d="M246.6,36.7c5.5,0,8.6,2.3,8.6,6.6c0,4.3-3,6.6-8.6,6.6s-8.6-2.3-8.6-6.6C238.1,38.9,241.1,36.7,246.6,36.7z
		 M243.1,43.3c0,2.3,1.4,3.4,3.5,3.4c2.2,0,3.5-1.1,3.5-3.4c0-2.3-1.4-3.4-3.5-3.4C244.5,39.8,243.1,41,243.1,43.3z"/>
	<path class="st1" d="M256,37.2h4.6v1.8h0c1-1.2,2.7-2.1,5.1-2.1c3,0,5.2,1.4,5.2,4.5v8h-4.8v-6.6c0-1.6-0.9-2.3-2.5-2.3
		c-1.7,0-3,0.9-3,2.9v6H256V37.2z"/>
</g>
</svg>
