<svg width="32" height="32" viewBox="0 0 32 32" fill="none" xmlns="http://www.w3.org/2000/svg">
<path d="M27.6018 21.9925C26.86 20.7155 25.9756 18.2923 25.9756 14V13.113C25.9756 7.57731 21.5346 3.04081 16.076 3.00028C16.0505 3.00016 16.0252 3.00003 15.9997 3.00003C13.351 3.00348 10.8121 4.05897 8.94153 5.93432C7.07098 7.80968 6.02201 10.3513 6.02536 13V14C6.02536 18.292 5.14047 20.7151 4.39829 21.992C4.22101 22.2957 4.12694 22.6407 4.12556 22.9924C4.12419 23.344 4.21556 23.6898 4.39047 23.9949C4.56537 24.2999 4.81762 24.5535 5.12178 24.73C5.42594 24.9064 5.77125 24.9996 6.1229 25H11C11 26.3261 11.5268 27.5979 12.4644 28.5356C13.4021 29.4733 14.6739 30 16 30C17.3261 30 18.5978 29.4733 19.5355 28.5356C20.4732 27.5979 21 26.3261 21 25H25.877C26.2286 24.9996 26.5739 24.9065 26.878 24.73C27.1821 24.5536 27.4344 24.3001 27.6093 23.9951C27.7842 23.6901 27.8756 23.3444 27.8743 22.9928C27.873 22.6412 27.779 22.2962 27.6018 21.9925ZM16 28C15.2046 27.9991 14.4421 27.6828 13.8797 27.1204C13.3172 26.5579 13.0009 25.7954 13 25H19C18.9991 25.7954 18.6827 26.5579 18.1203 27.1204C17.5579 27.6828 16.7953 27.9991 16 28Z" fill="white"/>
</svg>
