<svg width="32" height="32" viewBox="0 0 32 32" fill="none" xmlns="http://www.w3.org/2000/svg">
<path d="M16.0002 2.99994C13.429 2.99994 10.9156 3.76238 8.77778 5.19083C6.63994 6.61929 4.97369 8.64962 3.98976 11.0251C3.00582 13.4005 2.74837 16.0144 3.24998 18.5361C3.75159 21.0579 4.98972 23.3742 6.8078 25.1923C8.62588 27.0104 10.9423 28.2485 13.464 28.7501C15.9858 29.2518 18.5996 28.9943 20.9751 28.0104C23.3505 27.0264 25.3808 25.3602 26.8093 23.2224C28.2378 21.0845 29.0002 18.5711 29.0002 15.9999C28.9963 12.5533 27.6254 9.24899 25.1883 6.81186C22.7511 4.37473 19.4468 3.00384 16.0002 2.99994ZM17.5003 23.0004C17.5002 23.3983 17.3421 23.7798 17.0608 24.0611C16.7794 24.3425 16.3978 24.5005 15.9999 24.5004C15.6021 24.5004 15.2205 24.3423 14.9392 24.061C14.6579 23.7796 14.4998 23.3981 14.4998 23.0002C14.4998 22.6023 14.6579 22.2207 14.9392 21.9394C15.2205 21.658 15.6021 21.5 15.9999 21.4999C16.3978 21.4999 16.7794 21.6579 17.0608 21.9392C17.3421 22.2205 17.5002 22.6021 17.5003 22.9999V23.0004ZM19.5358 17.5356C18.844 18.2311 17.9617 18.706 17.0002 18.9006V18.9999C17.0002 19.2652 16.8948 19.5195 16.7073 19.707C16.5198 19.8946 16.2654 19.9999 16.0002 19.9999C15.735 19.9999 15.4806 19.8946 15.2931 19.707C15.1055 19.5195 15.0002 19.2652 15.0002 18.9999V17.9999C15.0002 17.7347 15.1056 17.4804 15.2931 17.2928C15.4806 17.1053 15.735 17 16.0002 16.9999C16.5935 16.9999 17.1735 16.8239 17.6668 16.4943C18.1601 16.1647 18.5445 15.6962 18.7716 15.148C18.9986 14.5999 19.058 13.9967 18.9422 13.4148C18.8265 12.8329 18.5408 12.2984 18.1213 11.8789C17.7017 11.4593 17.1672 11.1736 16.5853 11.0579C16.0034 10.9421 15.4003 11.0015 14.8521 11.2286C14.304 11.4556 13.8355 11.8401 13.5058 12.3334C13.1762 12.8267 13.0002 13.4066 13.0002 13.9999C13.0002 14.2652 12.8948 14.5195 12.7073 14.707C12.5198 14.8946 12.2654 14.9999 12.0002 14.9999C11.735 14.9999 11.4806 14.8946 11.2931 14.707C11.1055 14.5195 11.0002 14.2652 11.0002 13.9999C11.0002 13.1777 11.203 12.3682 11.5907 11.643C11.9783 10.9179 12.5388 10.2995 13.2224 9.84274C13.9061 9.38595 14.6919 9.10481 15.5102 9.02423C16.3285 8.94365 17.154 9.06611 17.9136 9.38078C18.6733 9.69544 19.3436 10.1926 19.8652 10.8282C20.3869 11.4638 20.7437 12.2182 20.9041 13.0246C21.0645 13.8311 21.0236 14.6646 20.7849 15.4515C20.5463 16.2383 20.1172 16.9542 19.5358 17.5356Z" fill="white"/>
</svg>
